<mxfile host="65bd71144e">
    <diagram id="pJt6BPe_oG3Pro4LQC_H" name="Page-1">
        <mxGraphModel dx="519" dy="382" grid="0" gridSize="10" guides="1" tooltips="1" connect="1" arrows="1" fold="1" page="1" pageScale="1" pageWidth="850" pageHeight="1100" background="#FFFFFF" math="0" shadow="0">
            <root>
                <mxCell id="0"/>
                <mxCell id="1" parent="0"/>
                <mxCell id="2" value="&lt;font style=&quot;font-size: 17px&quot; face=&quot;Times New Roman&quot;&gt;&lt;b&gt;Steps to link&lt;br&gt;Javascript front-end&lt;br&gt;to Go back-end&lt;/b&gt;&lt;/font&gt;" style="ellipse;whiteSpace=wrap;html=1;align=center;newEdgeStyle={&quot;edgeStyle&quot;:&quot;entityRelationEdgeStyle&quot;,&quot;startArrow&quot;:&quot;none&quot;,&quot;endArrow&quot;:&quot;none&quot;,&quot;segment&quot;:10,&quot;curved&quot;:1};treeFolding=1;treeMoving=1;fillColor=#6a00ff;strokeColor=#3700CC;fontColor=#ffffff;" parent="1" vertex="1">
                    <mxGeometry x="340" y="30" width="230" height="80" as="geometry"/>
                </mxCell>
                <mxCell id="7" value="Steps" style="swimlane;childLayout=stackLayout;horizontal=1;fillColor=none;horizontalStack=1;resizeParent=1;resizeParentMax=0;resizeLast=0;collapsible=0;strokeColor=none;stackBorder=10;stackSpacing=-12;resizable=1;align=center;points=[];fontColor=#000000;fontFamily=Times New Roman;fontSize=17;" parent="1" vertex="1">
                    <mxGeometry x="120" y="100" width="77" height="180" as="geometry"/>
                </mxCell>
                <mxCell id="8" value="Javascript" style="shape=step;perimeter=stepPerimeter;fixedSize=1;points=[];fontFamily=Times New Roman;fontSize=15;strokeColor=#FF0080;fillColor=#FFFFFF;direction=south;strokeWidth=2;fontColor=#FF0080;" parent="7" vertex="1">
                    <mxGeometry x="10" y="33" width="57" height="137" as="geometry"/>
                </mxCell>
                <mxCell id="9" value="GO" style="shape=step;perimeter=stepPerimeter;fixedSize=1;points=[];fontFamily=Times New Roman;fontSize=17;strokeColor=#0000FF;fillColor=#FFFFFF;direction=south;strokeWidth=2;fontColor=#0000FF;" parent="1" vertex="1">
                    <mxGeometry x="130" y="270" width="57" height="190" as="geometry"/>
                </mxCell>
                <mxCell id="10" value="SQL" style="shape=step;perimeter=stepPerimeter;fixedSize=1;points=[];fontFamily=Times New Roman;fontSize=17;strokeColor=#00FF00;fillColor=#FFFFFF;direction=south;strokeWidth=2;fontColor=#00FF00;" parent="1" vertex="1">
                    <mxGeometry x="130" y="455" width="57" height="140" as="geometry"/>
                </mxCell>
                <mxCell id="25" value="&lt;div style=&quot;text-align: center&quot;&gt;&lt;span style=&quot;background-color: rgb(255 , 255 , 255)&quot;&gt;&lt;font color=&quot;#000000&quot;&gt;&lt;i&gt;JS Function with event listener to send JS object data to GO via fetch():&lt;/i&gt;&lt;/font&gt;&lt;/span&gt;&lt;/div&gt;&lt;div style=&quot;text-align: center&quot;&gt;&lt;span style=&quot;background-color: rgb(255 , 255 , 255)&quot;&gt;&lt;font color=&quot;#000000&quot;&gt;&lt;br&gt;&lt;/font&gt;&lt;/span&gt;&lt;/div&gt;&lt;span style=&quot;background-color: rgb(255 , 255 , 255)&quot;&gt;&lt;font color=&quot;#000000&quot;&gt;a) Populate JS object with user input;&lt;br&gt;b)&amp;nbsp;&lt;span style=&quot;font-family: &amp;#34;droid sans mono&amp;#34; , &amp;#34;monospace&amp;#34; , monospace ; font-size: 14px&quot;&gt;fetch&lt;/span&gt;&lt;span style=&quot;font-family: &amp;#34;droid sans mono&amp;#34; , &amp;#34;monospace&amp;#34; , monospace ; font-size: 14px&quot;&gt;(&lt;/span&gt;&lt;span style=&quot;font-family: &amp;#34;droid sans mono&amp;#34; , &amp;#34;monospace&amp;#34; , monospace ; font-size: 14px&quot;&gt;&quot;http://localhost:8080/register&quot;&lt;/span&gt;&lt;span style=&quot;font-family: &amp;#34;droid sans mono&amp;#34; , &amp;#34;monospace&amp;#34; , monospace ; font-size: 14px&quot;&gt;, &lt;/span&gt;&lt;span style=&quot;font-family: &amp;#34;droid sans mono&amp;#34; , &amp;#34;monospace&amp;#34; , monospace ; font-size: 14px&quot;&gt;configRegister&lt;/span&gt;&lt;/font&gt;&lt;span style=&quot;font-family: &amp;#34;droid sans mono&amp;#34; , &amp;#34;monospace&amp;#34; , monospace ; font-size: 14px&quot;&gt;&lt;font color=&quot;#000000&quot;&gt;)&lt;br&gt;&amp;nbsp; turns user input into Json and sends to '/register' url;&amp;nbsp;&lt;/font&gt;&lt;br&gt;&lt;/span&gt;&lt;/span&gt;" style="html=1;whiteSpace=wrap;container=1;recursiveResize=0;collapsible=0;fontFamily=Times New Roman;fontSize=17;fontColor=#994C00;strokeColor=#FF0080;strokeWidth=2;fillColor=#FFFFFF;opacity=50;align=left;" parent="1" vertex="1">
                    <mxGeometry x="230" y="120" width="530" height="140" as="geometry"/>
                </mxCell>
                <mxCell id="26" value="" style="triangle;html=1;whiteSpace=wrap;fontFamily=Times New Roman;fontSize=17;fontColor=#FF0080;strokeColor=#FF00FF;strokeWidth=2;fillColor=#FF0080;labelBackgroundColor=#FF0080;" parent="1" vertex="1">
                    <mxGeometry x="197" y="180" width="20" height="30" as="geometry"/>
                </mxCell>
                <mxCell id="27" value="&lt;p style=&quot;line-height: 1&quot;&gt;&lt;span style=&quot;color: rgb(0 , 0 , 0)&quot;&gt;&lt;br&gt;&lt;i&gt;GO Register handler function&lt;/i&gt;&lt;br&gt;&lt;/span&gt;&lt;/p&gt;&lt;div style=&quot;text-align: left&quot;&gt;&lt;font color=&quot;#000000&quot;&gt;a)&lt;/font&gt;&amp;nbsp;&lt;span style=&quot;color: rgb(153 , 76 , 0) ; background-color: rgb(255 , 255 , 255)&quot;&gt;&lt;font color=&quot;#000000&quot;&gt;&lt;span style=&quot;font-family: &amp;#34;droid sans mono&amp;#34; , &amp;#34;monospace&amp;#34; , monospace ; font-size: 14px&quot;&gt;http.&lt;/span&gt;&lt;span style=&quot;font-family: &amp;#34;droid sans mono&amp;#34; , &amp;#34;monospace&amp;#34; , monospace ; font-size: 14px&quot;&gt;HandleFunc&lt;/span&gt;&lt;span style=&quot;font-family: &amp;#34;droid sans mono&amp;#34; , &amp;#34;monospace&amp;#34; , monospace ; font-size: 14px&quot;&gt;(&lt;/span&gt;&lt;span style=&quot;font-family: &amp;#34;droid sans mono&amp;#34; , &amp;#34;monospace&amp;#34; , monospace ; font-size: 14px&quot;&gt;&quot;/register&quot;&lt;/span&gt;&lt;span style=&quot;font-family: &amp;#34;droid sans mono&amp;#34; , &amp;#34;monospace&amp;#34; , monospace ; font-size: 14px&quot;&gt;, rtforum.Register)&lt;/span&gt;&lt;/font&gt;&lt;/span&gt;&lt;/div&gt;&lt;span style=&quot;background-color: rgb(255 , 255 , 255)&quot;&gt;&lt;div style=&quot;text-align: left&quot;&gt;&lt;span style=&quot;font-family: &amp;#34;droid sans mono&amp;#34; , &amp;#34;monospace&amp;#34; , monospace ; font-size: 14px ; color: rgb(0 , 0 , 0) ; line-height: 1&quot;&gt;maps'/register' url to 'Register' handler function&lt;/span&gt;&lt;/div&gt;&lt;/span&gt;&lt;font color=&quot;#000000&quot;&gt;&lt;div style=&quot;text-align: left&quot;&gt;&lt;font color=&quot;#000000&quot;&gt;b)Register&amp;nbsp;&lt;/font&gt;&lt;span&gt;handler function:&lt;/span&gt;&lt;/div&gt;&lt;/font&gt;&lt;font color=&quot;#000000&quot;&gt;&lt;div style=&quot;text-align: left&quot;&gt;&lt;font color=&quot;#000000&quot;&gt;&lt;span style=&quot;background-color: rgb(255 , 255 , 255)&quot;&gt;&lt;span style=&quot;font-family: &amp;#34;droid sans mono&amp;#34; , &amp;#34;monospace&amp;#34; , monospace ; font-size: 14px&quot;&gt;Register&lt;/span&gt;&lt;span style=&quot;font-family: &amp;#34;droid sans mono&amp;#34; , &amp;#34;monospace&amp;#34; , monospace ; font-size: 14px&quot;&gt;(w http.ResponseWriter, r &lt;/span&gt;&lt;span style=&quot;font-family: &amp;#34;droid sans mono&amp;#34; , &amp;#34;monospace&amp;#34; , monospace ; font-size: 14px&quot;&gt;*&lt;/span&gt;&lt;span style=&quot;font-family: &amp;#34;droid sans mono&amp;#34; , &amp;#34;monospace&amp;#34; , monospace ; font-size: 14px&quot;&gt;http.Request)&lt;/span&gt;&lt;/span&gt;&lt;/font&gt;&lt;span style=&quot;color: rgb(255 , 255 , 255) ; font-family: &amp;#34;droid sans mono&amp;#34; , &amp;#34;monospace&amp;#34; , monospace ; font-size: 14px ; background-color: rgb(255 , 255 , 255)&quot;&gt; &lt;/span&gt;&lt;span&gt;unmarshals Json data and populates an instance of the 'Users' struct;&lt;/span&gt;&lt;/div&gt;&lt;/font&gt;&lt;font color=&quot;#000000&quot;&gt;&lt;div style=&quot;text-align: left&quot;&gt;&lt;font color=&quot;#000000&quot;&gt;The 'Users'&amp;nbsp;&lt;/font&gt;&lt;span&gt;struct type&amp;nbsp;&lt;/span&gt;&lt;font color=&quot;#000000&quot;&gt;maps&amp;nbsp;&lt;/font&gt;&lt;span&gt;Json data to&amp;nbsp;&lt;/span&gt;&lt;font color=&quot;#000000&quot;&gt;back-end data;&lt;/font&gt;&lt;/div&gt;&lt;/font&gt;&lt;br&gt;&lt;font color=&quot;#000000&quot;&gt;&lt;br&gt;&lt;/font&gt;&lt;p&gt;&lt;/p&gt;" style="html=1;whiteSpace=wrap;container=1;recursiveResize=0;collapsible=0;fontFamily=Times New Roman;fontSize=17;fontColor=#994C00;strokeColor=#0000FF;strokeWidth=2;fillColor=#FFFFFF;opacity=50;" parent="1" vertex="1">
                    <mxGeometry x="230" y="270" width="530" height="180" as="geometry"/>
                </mxCell>
                <mxCell id="28" value="" style="triangle;html=1;whiteSpace=wrap;fontFamily=Times New Roman;fontSize=17;fontColor=#994C00;strokeColor=#0000FF;strokeWidth=2;fillColor=#0000FF;" parent="1" vertex="1">
                    <mxGeometry x="197" y="323.5" width="20" height="30" as="geometry"/>
                </mxCell>
                <mxCell id="29" value="&lt;font color=&quot;#000000&quot;&gt;&lt;i&gt;GO Register handler function - continued&lt;br&gt;&lt;/i&gt;&lt;br&gt;&lt;div style=&quot;text-align: left&quot;&gt;a) Make an instance of the 'Users' struct:&lt;span style=&quot;white-space: pre&quot;&gt;&#9;&lt;/span&gt;var regData User&lt;/div&gt;&lt;div style=&quot;text-align: left&quot;&gt;&lt;span&gt;b) SQL statement:&lt;/span&gt;&lt;/div&gt;&lt;div style=&quot;text-align: left&quot;&gt;&lt;span&gt;&amp;nbsp;_, err = sqldb.DB.Exec(`INSERT INTO Users ( field1, field2,...) VALUES(?,?,..)`, regData.FirstName, regData.LastName,...)&amp;nbsp;&lt;/span&gt;&lt;/div&gt;&lt;/font&gt;" style="html=1;whiteSpace=wrap;container=1;recursiveResize=0;collapsible=0;fontFamily=Times New Roman;fontSize=17;fontColor=#994C00;strokeColor=#00FF00;strokeWidth=2;fillColor=#FFFFFF;opacity=50;" parent="1" vertex="1">
                    <mxGeometry x="230" y="460" width="530" height="136" as="geometry"/>
                </mxCell>
                <mxCell id="30" value="" style="triangle;html=1;whiteSpace=wrap;fontFamily=Times New Roman;fontSize=17;fontColor=#994C00;strokeColor=#00FF00;strokeWidth=2;fillColor=#00FF00;" parent="1" vertex="1">
                    <mxGeometry x="197" y="510" width="20" height="30" as="geometry"/>
                </mxCell>
                <mxCell id="31" value="&lt;font face=&quot;Times New Roman&quot; style=&quot;font-size: 15px&quot;&gt;Helena Sedmak, December 2022&lt;/font&gt;" style="text;html=1;strokeColor=none;fillColor=none;align=center;verticalAlign=middle;whiteSpace=wrap;rounded=0;" vertex="1" parent="1">
                    <mxGeometry x="618" y="649" width="229" height="30" as="geometry"/>
                </mxCell>
            </root>
        </mxGraphModel>
    </diagram>
</mxfile>